<?xml version="1.0" standalone="no"?>
<!DOCTYPE svg PUBLIC "-//W3C//DTD SVG 20010904//EN"
 "http://www.w3.org/TR/2001/REC-SVG-20010904/DTD/svg10.dtd">
<svg version="1.0" xmlns="http://www.w3.org/2000/svg"
 width="512.000000pt" height="512.000000pt" viewBox="0 0 512.000000 512.000000"
 preserveAspectRatio="xMidYMid meet">
<metadata>
Created by potrace 1.14, written by Peter Selinger 2001-2017
</metadata>
<g transform="translate(0.000000,512.000000) scale(0.100000,-0.100000)"
fill="#000000" stroke="none">
<path d="M1965 5077 c-16 -33 -43 -59 -125 -117 -149 -107 -199 -189 -187
-306 10 -100 55 -160 189 -256 185 -132 185 -186 -2 -319 -128 -91 -190 -175
-190 -258 0 -20 5 -21 83 -21 l84 0 15 39 c12 30 36 53 116 110 111 79 146
115 173 176 27 61 32 107 19 168 -16 81 -60 139 -154 205 -44 31 -100 76 -123
98 -36 34 -43 48 -43 79 0 53 31 89 144 170 124 87 162 138 180 238 l7 37 -83
0 -83 -1 -20 -42z"/>
<path d="M2625 5077 c-11 -23 -39 -55 -61 -72 -23 -16 -72 -52 -109 -79 -113
-82 -161 -188 -136 -301 19 -86 63 -140 176 -221 191 -136 192 -193 11 -321
-50 -35 -100 -73 -113 -85 -32 -30 -83 -135 -83 -170 l0 -28 83 0 83 0 17 39
c12 26 37 53 78 82 169 121 208 166 230 265 10 42 10 66 0 109 -19 83 -63 138
-176 220 -144 104 -171 153 -122 226 12 19 53 55 89 80 148 102 196 160 214
262 l6 37 -83 0 -84 -1 -20 -42z"/>
<path d="M3300 5099 c0 -28 -63 -88 -166 -161 -130 -91 -179 -191 -154 -312
20 -96 57 -138 227 -260 68 -48 93 -84 93 -132 0 -32 -7 -44 -47 -82 -27 -24
-86 -71 -132 -105 -92 -68 -134 -126 -147 -204 l-7 -43 85 0 84 0 17 39 c12
26 37 53 79 82 120 86 173 135 203 190 26 46 30 64 30 129 0 123 -40 179 -218
304 -103 73 -128 127 -88 193 11 17 65 63 120 102 127 90 172 148 187 240 l7
41 -87 0 c-81 0 -86 -1 -86 -21z"/>
<path d="M1350 4000 c-286 -77 -450 -169 -503 -282 -33 -69 -18 -436 28 -683
48 -261 122 -467 261 -733 l75 -143 -73 37 c-174 88 -301 114 -550 114 l-181
0 6 -197 c3 -130 11 -219 21 -258 8 -33 15 -67 16 -75 0 -8 -24 -28 -53 -44
-143 -80 -260 -178 -321 -271 -242 -364 121 -737 936 -960 l57 -16 51 -154 52
-155 36 -10 c845 -226 1859 -226 2704 1 l37 10 47 143 c26 80 50 149 53 155 4
6 68 29 142 50 570 168 905 415 926 685 26 316 -380 603 -1095 774 -89 22
-165 42 -168 45 -3 3 7 30 23 59 l28 53 295 6 c288 5 297 6 375 33 313 107
523 379 542 701 19 322 -149 606 -446 755 -83 41 -191 68 -308 76 -90 7 -95 8
-108 35 -31 59 -154 138 -296 190 -89 33 -300 91 -307 85 -6 -7 -31 -120 -32
-143 0 -18 9 -24 68 -37 182 -41 369 -121 417 -178 21 -25 23 -33 14 -51 -17
-33 -47 -55 -129 -94 -281 -133 -816 -213 -1430 -213 -614 0 -1149 80 -1430
213 -82 39 -112 61 -129 94 -9 18 -7 26 14 51 48 57 235 137 417 178 75 17 77
22 59 94 -5 19 -12 47 -15 63 -4 15 -10 27 -14 26 -4 0 -54 -13 -112 -29z
m3182 -484 c209 -73 367 -253 408 -464 28 -140 -2 -313 -75 -438 -44 -76 -159
-184 -240 -226 -124 -64 -173 -73 -408 -71 -115 1 -211 3 -213 6 -2 2 21 57
52 123 72 152 146 375 178 534 27 134 56 382 56 479 0 95 0 95 94 87 44 -4
111 -17 148 -30z m-3285 -220 c129 -41 308 -79 502 -106 278 -38 399 -45 811
-45 412 0 533 7 811 45 288 40 534 103 682 175 l68 34 -6 -72 c-31 -365 -91
-564 -288 -962 -157 -317 -187 -388 -222 -522 -29 -110 -55 -296 -55 -389 0
-58 -3 -68 -27 -91 -125 -116 -536 -203 -957 -203 l-171 0 50 35 c130 93 259
245 335 395 83 166 110 301 110 553 l0 180 -183 -6 c-100 -4 -220 -14 -266
-22 -323 -62 -600 -271 -757 -571 l-33 -63 -32 62 c-17 34 -51 90 -75 125 -24
35 -59 102 -78 150 -19 48 -96 213 -173 367 -197 398 -257 596 -288 962 l-6
72 68 -34 c37 -18 118 -49 180 -69z m-428 -1166 c112 -19 250 -75 351 -143 66
-45 176 -153 226 -223 84 -118 148 -281 160 -414 l6 -65 -299 298 -298 297
-60 -60 -60 -60 300 -300 c165 -165 295 -300 290 -300 -32 0 -188 31 -230 45
-222 76 -399 224 -512 425 -67 119 -113 298 -113 436 l0 74 88 0 c48 0 116 -5
151 -10z m1898 -107 c-12 -274 -137 -513 -351 -675 -132 -100 -292 -164 -456
-183 l-55 -6 300 300 300 301 -60 60 -60 60 -298 -297 -299 -298 6 55 c36 299
213 558 478 699 128 68 252 99 402 100 l99 1 -6 -117z m1220 -187 c414 -93
761 -243 916 -398 190 -190 95 -394 -268 -575 -350 -175 -820 -284 -1480 -345
-187 -17 -903 -17 -1090 0 -660 61 -1130 170 -1480 345 -125 62 -195 109 -264
178 -140 139 -134 269 19 412 64 61 192 147 218 147 6 0 21 -19 33 -42 43 -84
122 -188 205 -268 138 -133 289 -218 474 -268 89 -24 113 -26 379 -30 230 -3
301 -1 380 12 89 15 111 15 251 1 591 -59 1216 49 1410 244 67 67 76 96 84
258 5 106 34 280 56 338 7 19 15 25 28 21 9 -3 68 -16 129 -30z m-2492 -1425
c337 -55 689 -81 1115 -81 438 0 832 30 1169 89 63 11 117 19 119 17 2 -2 -4
-29 -14 -60 l-17 -55 -106 -25 c-341 -81 -704 -118 -1151 -118 -447 0 -810 37
-1151 118 l-106 25 -16 53 c-22 68 -22 69 11 62 15 -3 81 -14 147 -25z"/>
</g>
</svg>
